<svg width="2081" height="2138" viewBox="0 0 2081 2138" fill="none" xmlns="http://www.w3.org/2000/svg">
<g clip-path="url(#clip0_39_349)">
<path d="M2081 0H0V2138H2081V0Z" fill="white"/>
<path d="M1801.54 684.57C1835.27 270.235 1441.46 137.373 1167.53 250.712C891.371 364.97 822.25 189.969 431.417 251.192C35.6771 313.185 253.447 947.435 253.447 947.435C253.447 947.435 330.698 1502.02 412.031 1756.4C492.925 2009.41 1203.14 1897.66 1376.28 1885.31C1548.43 1873.03 1698.55 1883.54 1841.41 1599.41C1984.01 1315.8 1767.92 1097.53 1801.54 684.57Z" fill="#F4F7FA"/>
<path d="M1063.97 1719.94C1033.42 1685.88 993.743 1631.25 978.991 1556.89C959.644 1459.36 1000.17 1413.58 1006.41 1251.19C1010.36 1148.5 1012.12 1076.8 964.868 1035.09C927.841 1002.41 865.152 992.052 825.079 1017.16C791.76 1038.04 770.176 1085.89 762.295 1120.56C755.872 1148.82 758.21 1169.83 741.388 1183.78C724.196 1198.04 707.271 1188.11 691.389 1198.45C659.18 1219.42 672.027 1297.21 674.103 1309.78C697.2 1449.63 813.221 1550.96 864.342 1594.52C906.61 1630.54 972.453 1679.2 1063.97 1719.94Z" fill="url(#paint0_linear_39_349)"/>
<mask id="mask0_39_349" style="mask-type:luminance" maskUnits="userSpaceOnUse" x="669" y="1003" width="395" height="717">
<path d="M1063.97 1719.94C1033.42 1685.88 993.743 1631.25 978.991 1556.89C959.644 1459.36 1000.17 1413.58 1006.41 1251.19C1010.36 1148.5 1012.12 1076.8 964.868 1035.09C927.841 1002.41 865.152 992.052 825.079 1017.16C791.76 1038.04 770.176 1085.89 762.295 1120.56C755.872 1148.82 758.21 1169.83 741.388 1183.78C724.196 1198.04 707.271 1188.11 691.389 1198.45C659.18 1219.42 672.027 1297.21 674.103 1309.78C697.2 1449.63 813.221 1550.96 864.342 1594.52C906.61 1630.54 972.453 1679.2 1063.97 1719.94Z" fill="white"/>
</mask>
<g mask="url(#mask0_39_349)">
<g opacity="0.5">
<path d="M1099.28 1748.65C1043.83 1722.21 996.585 1691.99 958.851 1658.82C902.932 1609.66 869.628 1555.32 859.866 1497.31C852.234 1451.96 859.241 1403.97 868.111 1343.21C875.464 1292.83 885.034 1257.87 893.477 1227.02C904.392 1187.14 913.013 1155.64 911.444 1109.17C909.85 1061.93 897.968 1014.24 876.128 967.413L879.866 965.531C901.959 1012.9 913.98 1061.18 915.595 1109.02C917.187 1156.17 908.486 1187.96 897.472 1228.2C889.062 1258.93 879.531 1293.75 872.218 1343.84C863.059 1406.59 856.443 1451.92 863.956 1496.56C873.546 1553.55 906.376 1607.03 961.533 1655.52C998.979 1688.44 1045.91 1718.45 1101.01 1744.73L1099.28 1748.65Z" fill="#E5E5E5"/>
<path d="M874.941 1309.25L874.424 1306.87C854.133 1213.7 810.811 1153.28 778.042 1118.99C742.585 1081.9 711.627 1066.66 711.319 1066.51L713.076 1062.6C713.391 1062.75 745.017 1078.32 780.989 1115.95C813.855 1150.33 857.207 1210.68 877.934 1303.47C885.825 1300.12 913.861 1287.07 942.813 1259.95C974.135 1230.61 1012.99 1178.29 1020.21 1095.68L1024.35 1096.07C1017 1180.16 977.392 1233.41 945.461 1263.28C910.865 1295.64 877.483 1308.3 877.15 1308.43L874.941 1309.25Z" fill="#E5E5E5"/>
<path d="M859.603 1445.2L858.187 1444.65C816.006 1428.53 770.549 1373.77 723.077 1281.88C687.833 1213.67 664.588 1149.32 664.357 1148.67L668.249 1147.16C669.161 1149.7 760.269 1400.58 858.225 1440.05C864.144 1432.4 896.894 1390.86 936.951 1355.16C955.646 1338.49 985.463 1325.41 1025.57 1316.28C1055.34 1309.51 1079.99 1307.57 1080.24 1307.55L1080.54 1311.85C1079.57 1311.93 983.067 1319.73 939.654 1358.43C895.87 1397.46 860.885 1443.5 860.537 1443.96L859.603 1445.2Z" fill="#E5E5E5"/>
<path d="M945.681 1645.77L941.613 1644.98C941.137 1644.88 893.28 1635.38 831.76 1608.16C774.959 1583.03 694.508 1537.21 633.8 1461.67L516.793 1316.05L519.982 1313.29L636.989 1458.9C742.763 1590.53 910.26 1633.44 938.337 1639.85C917.53 1592.21 925.33 1542.55 961.016 1495.95C988.553 1460 1023.39 1438.22 1023.74 1438.01L1025.86 1441.72C1025.52 1441.93 991.256 1463.36 964.196 1498.73C928.146 1545.85 921.304 1594.02 943.861 1641.9L945.681 1645.77Z" fill="#E5E5E5"/>
</g>
</g>
<path d="M975.725 1641.56C917.754 1666.23 840.517 1689.05 756.653 1685.3C735.251 1684.34 603.036 1678.42 595.793 1619.94C593.241 1599.34 608.351 1589.61 605.403 1562.01C601.909 1529.3 578.458 1522.02 551.974 1490.48C536.17 1471.67 489.921 1416.61 513.14 1365.75C527.015 1335.36 565.069 1307.84 599.971 1302.27C651.165 1294.1 685.548 1334.73 742.58 1404.54C793.137 1466.43 794.014 1486.43 831.168 1530.33C858.742 1562.91 903.241 1605.05 975.725 1641.56Z" fill="url(#paint1_linear_39_349)"/>
<mask id="mask1_39_349" style="mask-type:luminance" maskUnits="userSpaceOnUse" x="506" y="1301" width="470" height="385">
<path d="M975.725 1641.56C917.754 1666.23 840.517 1689.05 756.653 1685.3C735.251 1684.34 603.036 1678.42 595.793 1619.94C593.241 1599.34 608.351 1589.61 605.403 1562.01C601.909 1529.3 578.458 1522.02 551.974 1490.48C536.17 1471.67 489.921 1416.61 513.14 1365.75C527.015 1335.36 565.069 1307.84 599.971 1302.27C651.165 1294.1 685.548 1334.73 742.58 1404.54C793.137 1466.43 794.014 1486.43 831.168 1530.33C858.742 1562.91 903.241 1605.05 975.725 1641.56Z" fill="white"/>
</mask>
<g mask="url(#mask1_39_349)">
<g opacity="0.5">
<path d="M997.806 1642.32C928.213 1642.32 858.412 1620.67 789.633 1577.65C700.844 1522.11 636.007 1444.85 597.248 1389.82C570.179 1351.38 553.899 1303.17 548.863 1246.54L552.998 1246.14C557.964 1301.99 573.981 1349.47 600.6 1387.27C639.132 1441.98 703.577 1518.78 791.775 1573.95C876.403 1626.88 962.557 1647.16 1047.84 1634.22C1111.87 1624.5 1173.09 1597.22 1229.83 1553.14L1232.31 1556.6C1175.02 1601.11 1113.16 1628.67 1048.44 1638.49C1031.59 1641.05 1014.7 1642.32 997.806 1642.32Z" fill="#E5E5E5"/>
<path d="M686.917 1493.87L685.084 1493.5C526.709 1461.45 490.414 1363.58 483.062 1334.35C482.933 1333.84 482.85 1333.49 482.795 1333.33L486.656 1331.74C486.728 1331.92 486.872 1332.43 487.08 1333.26C494.248 1361.76 529.601 1456.92 684.003 1488.88C687.871 1474.07 710.98 1374.57 656.925 1299.04L660.257 1296.46C719.784 1379.63 687.795 1490.91 687.465 1492.02L686.917 1493.87Z" fill="#E5E5E5"/>
<path d="M652.183 1620.11C642.515 1620.11 633.817 1619.39 626.152 1618.28C587.866 1612.74 566.945 1597.02 566.073 1596.36L568.532 1592.88C568.739 1593.04 589.658 1608.7 626.993 1614.04C661.317 1618.96 716.924 1615.89 787.206 1573.6C787.575 1563.01 788.867 1480.74 745.917 1389.9L699.32 1291.34L703.047 1289.44L749.644 1387.99C795.948 1485.93 791.356 1574.12 791.304 1575L791.236 1576.15L790.277 1576.74C734.037 1610.8 686.888 1620.11 652.183 1620.11Z" fill="#E5E5E5"/>
</g>
</g>
<path d="M1670.21 1738.33H1645.98L1615.96 1659.06C1615.96 1659.06 1671.03 1663.06 1670.21 1738.33Z" fill="url(#paint2_linear_39_349)"/>
<path d="M1104.68 1875.42L1262.37 1845.05C1262.37 1845.05 1276.69 1718.53 1206.2 1706.51C1135.71 1694.49 1097.88 1792.5 1104.68 1875.42Z" fill="url(#paint3_linear_39_349)"/>
<path d="M1112.44 1726.6C1112.42 1726.6 1112.41 1726.6 1112.39 1726.6C1107.47 1727.12 1102.96 1729.12 1098.47 1731.99C1094.16 1734.26 1088.95 1736.94 1088.95 1740.36V1740.44C1072.34 1758.39 1061.4 1791.58 1061.34 1828.73C1061.25 1878.21 1080.63 1918.21 1106.18 1922.82C1106.18 1922.82 1106.12 1922.85 1106.12 1922.85C1107.85 1923.11 1129.25 1931.17 1196.72 1923.23C1198.5 1893.11 1199.56 1722.62 1199.56 1722.62C1199.56 1722.62 1145.64 1719.72 1112.44 1726.6Z" fill="url(#paint4_linear_39_349)"/>
<path d="M1247.13 1819.23C1247.13 1875.83 1221.92 1922.73 1191.37 1923.91C1161.4 1925.07 1137.57 1881.65 1137.63 1826.99C1137.68 1772.4 1161.56 1725.72 1191.47 1722.64C1221.97 1719.49 1247.13 1762.69 1247.13 1819.23Z" fill="url(#paint5_linear_39_349)"/>
<path d="M1223.23 1820.53C1223.22 1860.69 1206.42 1894.07 1185.95 1895.06C1165.74 1896.03 1149.58 1864.98 1149.61 1825.76C1149.65 1786.56 1165.85 1753.28 1186.03 1751.38C1206.47 1749.46 1223.24 1780.4 1223.23 1820.53Z" fill="#E5E5E5"/>
<path d="M1556.63 1666.34C1556.62 1666.34 1556.6 1666.34 1556.59 1666.34C1552.6 1666.78 1547.87 1668.51 1544.23 1670.98C1540.73 1672.94 1541.67 1675.24 1535.44 1678.19V1678.26C1525.05 1693.72 1514.16 1722.31 1514.11 1754.31C1514.04 1796.93 1530.29 1831.38 1551.01 1835.36C1551.01 1835.36 1551.24 1835.38 1551.24 1835.38C1552.63 1835.61 1570.13 1842.55 1624.86 1835.71C1626.31 1809.77 1627.24 1662.91 1627.24 1662.91C1627.24 1662.91 1583.56 1660.41 1556.63 1666.34Z" fill="url(#paint6_linear_39_349)"/>
<path d="M1665.9 1746.12C1665.9 1794.88 1645.44 1835.28 1620.66 1836.3C1596.35 1837.29 1577.02 1799.89 1577.06 1752.81C1577.11 1705.78 1596.48 1665.58 1620.74 1662.92C1645.48 1660.22 1665.9 1697.42 1665.9 1746.12Z" fill="url(#paint7_linear_39_349)"/>
<path d="M1646.5 1747.24C1646.5 1781.84 1632.87 1810.59 1616.26 1811.44C1599.87 1812.28 1586.76 1785.54 1586.78 1751.75C1586.81 1717.98 1599.95 1689.32 1616.33 1687.69C1632.91 1686.03 1646.51 1712.67 1646.5 1747.24Z" fill="#E5E5E5"/>
<path d="M516.186 1686.79C516.164 1686.79 516.141 1686.79 516.119 1686.79C510.008 1686.79 505.35 1689.99 499.749 1692.83C494.347 1695 490.866 1699.31 488.789 1703V1703.09C465.945 1722.35 452.923 1760.93 452.923 1805.35C452.923 1864.47 477.164 1913.19 509.198 1919.88C509.198 1919.88 508.892 1919.92 508.892 1919.92C511.034 1920.3 537.32 1930.7 618.135 1924.49C620.214 1890.2 621.303 1694 621.303 1694C621.303 1694 556.915 1682.47 516.186 1686.79Z" fill="url(#paint8_linear_39_349)"/>
<path d="M611.743 1925.04C647.334 1925.04 676.186 1873.41 676.186 1809.72C676.186 1746.03 647.334 1694.4 611.743 1694.4C576.152 1694.4 547.3 1746.03 547.3 1809.72C547.3 1873.41 576.152 1925.04 611.743 1925.04Z" fill="url(#paint9_linear_39_349)"/>
<path d="M605.333 1891.73C629.348 1891.73 648.815 1854.81 648.815 1809.27C648.815 1763.73 629.348 1726.81 605.333 1726.81C581.319 1726.81 561.852 1763.73 561.852 1809.27C561.852 1854.81 581.319 1891.73 605.333 1891.73Z" fill="url(#paint10_linear_39_349)"/>
<path d="M1691.07 1693.93C1693.32 1704.54 1690.44 1715.62 1683.35 1723.6L1670.23 1738.37C1666.63 1694.8 1644.95 1661.29 1618.71 1661.29C1589.98 1661.29 1566.66 1701.52 1566.66 1751.13C1566.66 1762.89 1567.96 1774.1 1570.36 1784.4L1564.63 1786.86L1254.68 1846.53C1255.52 1839.89 1257.07 1833.02 1257.07 1826.02C1257.07 1819.7 1257.16 1813.54 1257.16 1807.5C1257.16 1807.46 1257.16 1807.46 1257.16 1807.42C1246.78 1756.06 1221.5 1716.94 1186.77 1716.94C1147.95 1716.94 1115.91 1765.8 1115.91 1826.02C1115.91 1842.48 1118 1858.06 1122.2 1872.05L1075.86 1880.96C1075.82 1881.04 1075.67 1882.01 1075.56 1882.09C1074.11 1883.72 1062.91 1893.99 1008.14 1893.99H403.649C376.301 1893.99 355.881 1869.19 355.881 1840.77V1838.42C355.881 1827.53 360.927 1817.59 370.298 1812.7C370.298 1812.7 353.565 1762.86 366.836 1703.23C372.151 1679.42 381.914 1654.06 399.548 1629.69C409.797 1615.54 422.46 1601.74 438.371 1588.78C438.371 1588.78 507.16 1529.47 633.375 1514.05C633.375 1514.05 737.992 1435.01 833.721 1382.62C880.92 1356.78 932.638 1343.61 985.993 1343.61H1335.91C1396.65 1343.61 1456.24 1361.19 1507.91 1394.43L1599.05 1452.95C1599.05 1452.95 1620.81 1466.43 1643 1498.7C1668.24 1535.4 1694.02 1596.41 1688.93 1689.47L1691.07 1693.93Z" fill="url(#paint11_linear_39_349)"/>
<path d="M1075.72 1880.96C1075.68 1881.04 1075.6 1882.01 1075.49 1882.09C1071.28 1884.83 1065.97 1898.31 925.754 1893.99H403.649C376.301 1893.99 355.882 1869.19 355.882 1840.77V1838.42C355.882 1837.79 355.037 1837.19 355.075 1836.55C355.688 1826.42 361.025 1817.31 369.858 1812.7L977.762 1818.67C977.762 1818.67 1035.1 1807.81 1054.76 1818.51C1057.51 1820.02 1059.48 1821.93 1060.48 1824.35C1068.74 1844.15 1079.54 1871.69 1075.72 1880.96Z" fill="url(#paint12_linear_39_349)"/>
<g opacity="0.8">
<path d="M507.105 1704.5V1712.73C507.105 1719.13 504.58 1725.21 500.143 1729.66C495.705 1734.07 489.741 1736.42 483.582 1736.14L418.562 1733.28C402.957 1732.6 388.159 1725.85 377.103 1714.36L366.395 1703.23C371.71 1679.42 381.693 1654.05 399.327 1629.69C399.555 1629.73 399.787 1629.73 400.014 1629.77L431.224 1655.37C447.748 1668.92 467.326 1677.87 488.135 1681.32C499.075 1683.15 507.105 1692.97 507.105 1704.5Z" fill="#E5E5E5"/>
</g>
<g opacity="0.4">
<path d="M795.699 1695.07C791.423 1700.42 784.287 1704.77 779.865 1704.78C698.646 1704.77 617.504 1704.76 536.455 1704.75C532.04 1704.74 525.796 1700.38 522.587 1695.06C519.401 1689.76 520.866 1685.5 525.84 1685.5C615.233 1685.5 704.732 1685.5 794.331 1685.5C799.284 1685.51 799.985 1689.77 795.699 1695.07C795.695 1695.07 795.695 1695.07 795.699 1695.07Z" fill="url(#paint13_linear_39_349)"/>
<path d="M768.271 1729.63C763.751 1735.22 757.199 1739.82 753.579 1739.81C687.581 1739.79 621.635 1739.76 555.749 1739.74C552.149 1739.74 546.482 1735.16 543.107 1729.57C539.741 1724 540.454 1719.53 544.605 1719.53C619.251 1719.55 693.968 1719.57 768.757 1719.58C772.926 1719.59 772.746 1724.06 768.271 1729.63C768.275 1729.63 768.275 1729.63 768.271 1729.63Z" fill="url(#paint14_linear_39_349)"/>
</g>
<path opacity="0.8" d="M866.401 1737.89C851.586 1737.49 839.748 1726.33 839.748 1712.69V1704.37C839.748 1691.41 850.487 1680.55 864.511 1679.28L890.947 1676.89L1048.28 1633.82L1044.84 1654.43C1039.62 1685.58 1016.73 1711.79 984.796 1723.18L961.432 1731.51C946.055 1736.99 929.616 1739.58 913.133 1739.14L866.401 1737.89Z" fill="#E5E5E5"/>
<path opacity="0.4" d="M1054.65 1819.17L989.014 1837.88H354.193C354.806 1827.09 360.584 1817.98 369.417 1813.36L977.541 1819.33C977.541 1819.33 1034.99 1808.48 1054.65 1819.17Z" fill="#E5E5E5"/>
<path d="M1468.06 1773.13C1468.02 1773.13 1467.98 1773.13 1467.94 1773.13C1465.83 1768.81 1464.17 1770.15 1464.23 1767.95C1464.27 1766.62 1468.01 1633.82 1464.24 1579.99C1460.98 1533.36 1453.46 1524.9 1452.8 1524.27C1451.15 1523.31 1450.4 1521.06 1451.12 1519.19C1451.9 1517.15 1454.13 1516.1 1456.09 1516.91C1458.85 1518.05 1468.16 1525.89 1471.87 1578.91C1475.66 1633.14 1471.92 1766.87 1471.88 1768.2C1471.82 1770.36 1470.12 1773.13 1468.06 1773.13Z" fill="url(#paint15_linear_39_349)"/>
<path opacity="0.5" d="M1691.08 1693.93L1688.95 1689.47C1694.04 1596.41 1668.28 1535.4 1643.03 1498.71C1627.12 1499.66 1605.82 1507.89 1607.43 1545.41C1609.95 1604.68 1598.56 1635.29 1555.22 1662.4C1534.65 1675.24 1512.08 1686.29 1493.84 1702.71C1477.55 1717.42 1469.94 1740 1453.34 1753.83C1425.27 1777.2 1387.18 1766.83 1354.48 1765.28C1324.68 1763.85 1257.16 1762.38 1257.16 1807.42C1257.16 1807.45 1257.16 1807.45 1257.16 1807.5C1257.16 1813.54 1257.07 1819.7 1257.07 1826.02C1257.07 1833.02 1255.45 1839.89 1254.61 1846.53L1564.6 1786.86L1570.35 1784.4C1567.94 1774.1 1566.65 1762.89 1566.65 1751.13C1566.65 1701.52 1589.98 1661.29 1618.7 1661.29C1644.94 1661.29 1666.63 1694.8 1670.23 1738.37L1683.35 1723.6C1690.44 1715.62 1693.33 1704.54 1691.08 1693.93Z" fill="url(#paint16_linear_39_349)"/>
<path d="M1272.04 1371.67C1272.04 1371.67 1231.23 1480.21 1221.06 1496.11C1220.1 1497.58 1218.88 1499.77 1217.42 1501.04C1203.31 1513.29 1168.77 1516.28 1168.77 1516.28H660.092C773.569 1425.63 870.449 1371.67 870.449 1371.67H1272.04Z" fill="url(#paint17_linear_39_349)"/>
<path d="M1584.71 1462.89C1584.71 1462.89 1530.43 1485.95 1457.54 1507.65C1455.16 1495.96 1451.34 1481.3 1445.18 1465.16C1433.86 1435.3 1414.66 1400.36 1382.07 1369.56C1407.28 1371.46 1436.81 1376.55 1467.94 1387.84C1506.15 1401.67 1546.73 1424.85 1584.71 1462.89Z" fill="url(#paint18_linear_39_349)"/>
<path d="M1438.87 1513.06C1402.54 1523.27 1362.61 1532.73 1322.99 1538.78C1300.42 1542.19 1277.97 1544.5 1256.36 1545.18C1250.05 1545.38 1243.78 1545.45 1237.62 1545.38C1237.62 1545.38 1237.62 1545.34 1237.66 1545.3C1238.61 1541.08 1277.28 1376.35 1313.16 1371.46C1321.42 1370.35 1334.46 1368.92 1350.91 1368.64C1389.65 1398.41 1412.06 1435.42 1424.91 1467.07C1432.14 1484.83 1436.39 1500.89 1438.87 1513.06Z" fill="url(#paint19_linear_39_349)"/>
<path opacity="0.3" d="M1217.42 1500.99C1203.31 1513.24 1168.77 1516.28 1168.77 1516.28H660.092C773.569 1425.63 870.449 1371.67 870.449 1371.67H877.639C888.885 1375.98 899.9 1386.38 909.652 1400.81C949.008 1459.13 1166.44 1414.93 1217.42 1500.99Z" fill="url(#paint20_linear_39_349)"/>
<path opacity="0.3" d="M1256.36 1545.18C1250.05 1545.38 1243.78 1545.45 1237.62 1545.38C1237.62 1545.38 1237.62 1545.34 1237.65 1545.3C1242.74 1545.26 1249.05 1545.22 1256.36 1545.18Z" fill="url(#paint21_linear_39_349)"/>
<path opacity="0.3" d="M1424.91 1467.07C1432.14 1484.83 1436.38 1500.89 1438.87 1513.06C1402.54 1523.27 1362.61 1532.74 1322.99 1538.78C1328.57 1533.01 1333.73 1525.74 1338.24 1516.64C1357.94 1477.08 1392.71 1470.28 1424.91 1467.07Z" fill="url(#paint22_linear_39_349)"/>
<path opacity="0.3" d="M1584.71 1462.89C1584.71 1462.89 1530.43 1485.95 1457.54 1507.65C1455.16 1495.96 1451.34 1481.3 1445.18 1465.16C1464.61 1463.13 1481.4 1459.99 1491 1447.98C1507.83 1426.84 1486.95 1403.14 1467.94 1387.84C1506.15 1401.67 1546.73 1424.85 1584.71 1462.89Z" fill="url(#paint23_linear_39_349)"/>
<path d="M1242.68 1544.72C1242.68 1544.72 1258.78 1478.66 1281.66 1476.02C1304.54 1473.38 1369.8 1454 1375.73 1486.59C1381.66 1519.18 1369.8 1535.44 1336.75 1537.44C1303.7 1539.44 1281.66 1537.44 1281.66 1537.44L1266.41 1554.41C1266.41 1554.41 1241.84 1572.02 1242.68 1544.72Z" fill="url(#paint24_linear_39_349)"/>
<path d="M1235.06 1544.72C1235.06 1544.72 1251.16 1478.66 1274.04 1476.02C1296.92 1473.38 1362.17 1454 1368.1 1486.59C1374.03 1519.18 1362.17 1535.44 1329.12 1537.44C1296.07 1539.44 1274.04 1537.44 1274.04 1537.44L1258.79 1554.41C1258.79 1554.41 1234.21 1572.02 1235.06 1544.72Z" fill="url(#paint25_linear_39_349)"/>
<path d="M1465.8 1051.25C1468.92 1048.32 1475.74 1028.33 1475.53 1016.93C1475.32 1005.53 1473.77 985.665 1469.95 991.057C1466.12 996.449 1464.5 1010.27 1464.5 1010.27C1464.5 1010.27 1446.8 1009.92 1448.44 1027.43C1450.08 1044.94 1449.64 1052.56 1455.18 1054.26C1460.73 1055.96 1465.8 1051.25 1465.8 1051.25Z" fill="url(#paint26_linear_39_349)"/>
<path d="M1527.93 1270.97C1526.37 1271.2 1524.78 1271.4 1523.17 1271.61C1521.08 1271.89 1519.01 1272.11 1516.98 1272.32C1439.58 1279.9 1405.65 1237.31 1397.35 1186.49C1386.95 1122.93 1416.56 1046.47 1451.23 1038.93C1514.36 1025.2 1470.31 1135.87 1481.32 1153.22C1489.4 1165.97 1551.41 1154.8 1583.84 1147.93C1595.6 1145.46 1603.49 1143.54 1603.49 1143.54C1603.49 1143.54 1702.81 1246.43 1527.93 1270.97Z" fill="url(#paint27_linear_39_349)"/>
<path d="M1728.77 1849.95C1728.77 1849.95 1736.89 1871.18 1734.76 1880.59C1743.47 1880.41 1749.11 1879.26 1749.11 1879.26C1749.11 1879.26 1745.61 1869.58 1744.93 1864.78C1744 1858.3 1744.07 1847.82 1744.07 1847.82L1728.77 1849.95Z" fill="url(#paint28_linear_39_349)"/>
<path d="M1578.68 1905.51C1579.18 1906.13 1580.07 1907.44 1580.15 1909.22C1580.19 1910.19 1579.97 1910.98 1579.71 1911.71C1578.39 1915.32 1576.32 1915.79 1574.08 1919.62C1572.71 1921.96 1572.97 1922.66 1571.72 1923.72C1570.07 1925.11 1568.07 1925.19 1566.34 1925.21C1563.42 1925.25 1559.21 1925.14 1553.91 1924.48C1556.69 1920.76 1559.64 1916.99 1562.78 1913.17C1564.16 1911.5 1565.54 1909.87 1566.91 1908.27L1575.07 1905.41C1576.28 1905.44 1577.48 1905.47 1578.68 1905.51Z" fill="#14213D"/>
<path d="M1571.89 1864.33C1571.89 1864.33 1567.23 1889.62 1573.17 1896.71C1578.22 1903.79 1570.72 1898.74 1570.72 1898.74L1561.76 1906.86L1556.39 1916.51C1556.39 1916.51 1561.33 1891.75 1560.02 1881.92C1558.7 1872.09 1558.04 1865.47 1558.04 1865.47L1571.89 1864.33Z" fill="url(#paint29_linear_39_349)"/>
<path d="M1526.22 1389.24C1520.25 1409.73 1511.72 1442.79 1506.24 1484.28C1490.59 1602.6 1523.85 1606.38 1517.64 1737.5C1515.66 1779.35 1552.53 1875.86 1555.78 1877.99C1557.35 1878.15 1559.06 1878.26 1560.88 1878.2C1564.08 1878.1 1568.6 1877.59 1573.86 1875.95C1579.7 1874.91 1600.76 1815.63 1595.88 1780.38C1592.43 1755.44 1593.43 1728.67 1595.43 1675.12C1595.75 1666.45 1617.11 1506.33 1617.11 1506.33C1623.61 1565.6 1631.08 1615.95 1637.55 1655C1658.36 1780.43 1726.03 1856.36 1729.55 1857.57C1730.25 1857.87 1736.6 1860.26 1741.79 1856.71C1744.1 1855.12 1744.89 1853.08 1744.89 1853.08C1746.7 1851.61 1744.36 1727.85 1723.72 1634.71C1693.76 1499.51 1706.81 1467.88 1697.32 1407.49C1689.1 1355.24 1526.22 1389.24 1526.22 1389.24Z" fill="url(#paint30_linear_39_349)"/>
<path d="M1732.62 1888.64C1732.62 1888.64 1730.59 1888.64 1730.76 1891.36C1730.93 1894.07 1729.85 1903.41 1740.14 1903.85C1750.43 1904.29 1752.01 1903.09 1752.35 1903.09C1752.69 1903.09 1749.65 1894.16 1749.65 1894.16L1746.36 1889.78L1737.51 1888.82L1732.62 1888.64Z" fill="#14213D"/>
<path d="M1755.43 1898.02C1755.21 1895.76 1754 1892.21 1752.77 1889.35C1750.96 1885.11 1752.45 1883.52 1750.71 1879.65C1750.11 1878.32 1749.53 1877.05 1748.26 1875.79C1747.97 1875.5 1745.13 1872.78 1740.99 1872.92C1740.18 1872.94 1738.93 1873 1737.57 1873.75C1735.98 1874.63 1735.18 1875.96 1734.5 1877.12C1733.43 1878.96 1733.67 1879.52 1732.02 1884.76C1731.89 1885.18 1731.6 1886.1 1731.37 1887.36C1731.2 1888.33 1731.13 1889.14 1731.1 1889.69C1733.8 1889.69 1744.17 1890.13 1746.36 1891.79C1748.56 1893.46 1749.65 1896.26 1749.65 1899.06C1749.65 1901.87 1751 1903.18 1752.35 1903.09C1753.56 1903.02 1755.95 1900.7 1755.43 1898.02Z" fill="#FCA311"/>
<path d="M1570.64 1893.15C1572.85 1893.19 1574.47 1895.01 1575.69 1899.41C1576.91 1903.81 1582.78 1907.71 1575.93 1906.78C1569.09 1905.85 1564.12 1915.91 1561.68 1919.64C1559.24 1923.36 1552.68 1926.67 1552.84 1923.03C1553 1919.39 1555.9 1917.69 1556.71 1913.97C1557.53 1910.24 1565.6 1893.07 1570.64 1893.15Z" fill="#FCA311"/>
<path d="M1741.95 1191.8C1712.37 1254.94 1709.99 1272.18 1699.53 1316.07C1694.9 1335.42 1685.78 1356.23 1692.99 1391.05C1694.04 1396.23 1695.47 1401.7 1697.33 1407.51C1683.12 1415.3 1662.94 1424.02 1637.72 1427.91C1582.52 1436.45 1536.19 1419.26 1518.19 1409.66C1514.05 1389.93 1509.49 1360.9 1514.1 1297.99C1514.52 1292.51 1515.27 1283.58 1516.98 1272.32C1518.57 1261.93 1520.93 1249.54 1524.47 1236.15C1524.94 1234.43 1525.42 1232.71 1525.9 1230.97C1530.73 1213.89 1535.53 1202.4 1540.84 1192.58C1548.17 1178.98 1556.26 1168.93 1558.62 1166.07C1561.15 1162.95 1563.2 1160.64 1563.62 1160.23C1569.72 1154.53 1576.61 1150.59 1583.84 1147.94C1606.37 1139.6 1632.14 1143.59 1647.21 1144.04C1665.01 1144.59 1699.31 1145.44 1718.34 1168.86C1730.74 1184.15 1750.13 1174.4 1741.95 1191.8Z" fill="url(#paint31_linear_39_349)"/>
<path d="M1631.68 1116.96C1633.23 1104.48 1642.72 1096.49 1644.79 1094.78C1653.45 1087.62 1655.22 1086.9 1658.2 1086.31L1662.26 1085.67C1662.26 1085.67 1662.48 1085.68 1662.7 1085.69C1665.08 1085.84 1672.22 1088.74 1673.51 1089.68C1677.66 1092.71 1674.61 1114.15 1662.05 1140.82C1661.55 1143.08 1661.06 1145.34 1660.57 1147.6C1671.51 1149.6 1674.22 1151.65 1674.31 1153.29C1674.5 1156.84 1662.51 1161.37 1651.4 1161.66C1637.47 1162.03 1622.68 1155.8 1622.97 1151.16C1623.08 1149.27 1625.71 1146.95 1635.82 1144.67C1637.4 1142.36 1638.98 1140.05 1640.56 1137.74C1639.13 1135.94 1630.53 1126.14 1631.68 1116.96Z" fill="url(#paint32_linear_39_349)"/>
<path d="M1658.2 1077.54C1653.83 1081.97 1652.75 1089.68 1654.05 1095.24C1654.82 1098.57 1655.82 1098.92 1655.68 1101.1C1655.28 1107.21 1644.56 1109.87 1645.16 1112.95C1645.58 1115.15 1651.16 1114.35 1652.12 1117.11C1653.17 1120.14 1647.05 1122.74 1644.42 1130.35C1644.01 1131.54 1641.52 1138.74 1644.71 1142.98C1647.7 1146.94 1654.37 1146 1661.9 1144.98C1670.2 1143.86 1676.16 1141.31 1677.9 1140.52C1683.39 1138.01 1689.3 1135.31 1694.2 1129.12C1695.36 1127.65 1702.18 1118.76 1701.6 1106.33C1700.85 1090 1687.72 1076.06 1674.2 1073.84C1672 1073.48 1663.55 1072.1 1658.2 1077.54Z" fill="#14213D"/>
<path d="M1648.89 1112.26C1652.05 1110.3 1654.46 1114.52 1652.97 1118.21C1651.48 1121.9 1646.48 1124.21 1643.45 1122.01C1640.42 1119.81 1644.64 1114.9 1648.89 1112.26Z" fill="url(#paint33_linear_39_349)"/>
<path d="M1693.3 1356.25C1693.3 1356.25 1690.53 1358.18 1686.27 1357.21C1682.01 1356.25 1676.83 1352.6 1672.21 1351.06C1667.58 1349.52 1667.21 1356.64 1674.06 1360.29C1680.9 1363.94 1686.83 1371.25 1689.42 1376.83C1692.01 1382.41 1698.48 1370.1 1698.48 1370.1L1693.3 1356.25Z" fill="url(#paint34_linear_39_349)"/>
<path d="M1696.27 1153.34C1706.78 1152.89 1754.56 1152.05 1794.03 1189.3C1801.97 1196.79 1839.69 1232.38 1836.5 1283.28C1832.66 1344.34 1771.93 1396.05 1725.23 1388.68C1714.34 1386.96 1705.5 1382.24 1698.89 1377.54L1691.12 1354.7C1690.99 1338.38 1699.58 1326.97 1704 1320.67C1714.89 1305.13 1730.41 1302.42 1732.7 1288.64C1733.97 1281.03 1730.39 1274.79 1727.2 1269.21C1716.31 1250.23 1698.94 1247.89 1689.94 1238.18C1680.66 1228.15 1670.04 1203.03 1696.27 1153.34Z" fill="url(#paint35_linear_39_349)"/>
<path opacity="0.3" d="M1697.33 1407.51C1683.12 1415.3 1662.94 1424.02 1637.72 1427.91C1582.52 1436.45 1536.19 1419.26 1518.19 1409.66C1514.05 1389.93 1509.49 1360.9 1514.1 1297.98C1514.52 1292.51 1515.27 1283.58 1516.98 1272.32C1439.58 1279.9 1405.65 1237.31 1397.35 1186.49C1412.39 1212.13 1437.97 1243.68 1471.12 1238.89C1512.36 1232.92 1520.99 1224.04 1524.47 1236.15C1525.62 1240.11 1526.19 1246.33 1527.2 1255.68C1527.67 1259.96 1527.89 1265.13 1527.93 1270.97C1528.37 1316.62 1519.52 1401.74 1548.33 1398.19C1579.17 1394.39 1656.33 1415.34 1692.98 1391.05C1694.04 1396.23 1695.47 1401.7 1697.33 1407.51Z" fill="url(#paint36_linear_39_349)"/>
<path d="M664.983 1379.74C654.785 1366.49 639.118 1353.94 626.146 1350.41C586.369 1339.6 539.733 1369.25 480.694 1406.78C411.146 1450.99 332.32 1501.1 279.509 1469.28C261.085 1458.18 249.872 1442.47 245.23 1421.27C229.914 1351.33 288.904 1240.86 312.927 1204.2L290.703 1188.45L268.488 1172.68C264.422 1178.87 169.156 1325.52 192.752 1433.59C200.767 1470.3 220.878 1498.58 252.527 1517.65C273.146 1530.08 294.871 1535.26 317.1 1535.26C381.691 1535.26 450.526 1491.5 508.766 1454.48C547.142 1430.08 594.901 1399.73 612.535 1404.51C613.097 1404.66 620.633 1411.89 627.057 1418.54C629.528 1421.1 632.898 1422.5 636.386 1422.43C639.873 1422.37 643.184 1420.83 645.562 1418.18L664.364 1397.2C668.71 1392.35 668.966 1384.91 664.983 1379.74Z" fill="url(#paint37_linear_39_349)"/>
<path d="M879.148 861.463C879.148 861.463 877.848 861.841 875.41 862.551C872.961 863.214 869.391 864.287 864.802 865.46C860.215 866.655 854.656 868.172 848.23 869.704C841.809 871.282 834.564 873.084 826.618 874.891C810.713 878.551 792.056 882.54 771.943 886.476C761.876 888.474 751.431 890.41 740.794 892.334L738.795 892.69C738.569 892.74 740.312 892.335 739.516 892.519L739.392 892.546L739.143 892.599L738.646 892.706L737.652 892.92L735.66 893.348C735.134 893.474 735.088 893.527 734.772 893.605C734.519 893.675 734.262 893.734 733.999 893.785C733.737 893.832 733.274 894.036 732.917 894.148C732.152 894.411 731.366 894.639 730.627 894.98C727.593 896.176 724.685 897.813 722.027 899.844C716.644 903.853 712.331 909.452 709.541 915.873L709.038 917.09L708.776 917.705L708.447 918.683L707.137 922.586C706.247 925.176 705.361 927.752 704.481 930.312C702.701 935.425 700.943 940.474 699.215 945.44C692.23 965.269 685.387 983.656 679.277 999.327C676.232 1007.16 673.331 1014.31 670.737 1020.63C668.198 1026.97 665.832 1032.45 663.906 1036.97C662.011 1041.49 660.382 1045.01 659.329 1047.42C658.235 1049.82 657.651 1051.1 657.651 1051.1C655.617 1055.55 650.364 1057.4 645.913 1055.21C642.358 1053.47 640.392 1049.66 640.777 1045.94C640.777 1045.94 640.924 1044.52 641.202 1041.87C641.521 1039.23 641.904 1035.33 642.571 1030.41C643.209 1025.49 643.955 1019.5 644.988 1012.69C645.968 1005.85 647.1 998.136 648.456 989.757C651.154 972.977 654.599 953.468 658.65 932.649C659.682 927.445 660.732 922.153 661.796 916.794C662.338 914.117 662.884 911.423 663.431 908.715L664.284 904.652L664.497 903.632L664.844 902.267L665.562 899.519C669.554 884.865 677.75 871.153 688.978 860.611C694.602 855.356 700.957 850.877 707.803 847.353C709.492 846.424 711.255 845.655 713.027 844.906C713.944 844.526 714.721 844.153 715.758 843.782L718.876 842.699L721.882 841.728L723.846 841.172L724.827 840.895L725.317 840.756L725.562 840.687L725.684 840.652L726.656 840.426L728.631 839.941C739.158 837.384 749.516 834.916 759.559 832.66C779.598 828.098 798.335 824.176 814.422 821.069C822.449 819.497 829.834 818.206 836.371 817.043C842.893 815.838 848.615 814.969 853.313 814.201C858.004 813.413 861.722 812.946 864.24 812.558C866.769 812.218 868.117 812.037 868.117 812.037C881.366 810.255 893.811 820.043 895.929 833.88C897.861 846.511 890.514 858.17 879.148 861.463Z" fill="url(#paint38_linear_39_349)"/>
<path d="M903.934 985.385L782.364 1157.58C762.282 1186.02 728.803 1199.51 694.977 1192.85L588.128 1171.94C574.625 1169.27 562.173 1163.75 551.451 1156C532.71 1142.45 519.207 1122.05 514.343 1098.18L490.42 980.369L490.889 980.28L543.488 946.144L575.573 1087.44C577.933 1099.23 586.982 1108.34 598.643 1110.7L706.314 1132.66C716.705 1134.77 727.805 1130.98 734.181 1121.95L856.362 948.891C865.13 936.471 868.507 921.085 867.11 906.541L860.214 833.202L918.788 829.287L920.13 829.129L926.436 901.782C929.161 931.203 921.187 960.947 903.934 985.385Z" fill="url(#paint39_linear_39_349)"/>
<g opacity="0.2">
<path d="M900.453 964.346L778.737 1136.75C758.631 1165.22 725.217 1178.78 691.342 1172.06L584.391 1151C570.867 1148.3 558.424 1142.78 547.685 1135C528.914 1121.39 515.401 1100.94 510.527 1077.02L490.886 980.277L543.489 946.144L575.573 1087.44C577.933 1099.22 586.982 1108.34 598.643 1110.7L706.314 1132.66C716.705 1134.77 727.806 1130.98 734.182 1121.95L856.362 948.891C865.13 936.472 868.507 921.085 867.11 906.542L860.214 833.202L918.788 829.287L923.127 880.714C925.862 910.201 917.727 939.879 900.453 964.346Z" fill="url(#paint40_linear_39_349)"/>
</g>
<path d="M381.038 972.925L221.529 1198.85C218.5 1203.14 217.29 1208.53 218.181 1213.78C219.073 1219.02 221.987 1223.65 226.248 1226.6L277.094 1261.82C285.437 1267.6 296.679 1265.54 302.611 1257.13L461.769 1031.7L381.038 972.925Z" fill="url(#paint41_linear_39_349)"/>
<path opacity="0.3" d="M273.527 1259.38L232.519 1230.9L403.25 989.072L443.599 1018.48L273.527 1259.38Z" fill="url(#paint42_linear_39_349)"/>
<path d="M426.812 1111.51L414.366 1129.14C411.859 1132.69 407.064 1133.64 403.416 1131.02L306.976 1062.07C303.249 1059.39 302.212 1054.28 304.762 1050.66L317.34 1032.85C319.876 1029.26 324.885 1028.44 328.612 1031.12L424.992 1100.5C428.64 1103.12 429.334 1107.94 426.812 1111.51Z" fill="url(#paint43_linear_39_349)"/>
<path opacity="0.1" d="M426.812 1111.51L417.28 1125.01C414.774 1128.56 409.979 1129.51 406.331 1126.89L309.89 1057.94C306.163 1055.26 305.126 1050.15 307.677 1046.54L317.34 1032.85C319.876 1029.26 324.884 1028.44 328.612 1031.12L424.991 1100.5C428.64 1103.12 429.333 1107.94 426.812 1111.51Z" fill="url(#paint44_linear_39_349)"/>
<path d="M1550.8 461.419L1415.01 356.521C1408.36 351.374 1399.8 350.522 1392.68 354.298L1139.91 488.502L1110.1 426.871L1364.4 292.671C1391.44 278.4 1423.87 281.786 1448.98 301.4L1584.33 407.114C1591.05 412.376 1592.81 422.619 1588.24 430.011L1582.77 438.862L1571.28 457.475C1566.71 464.864 1557.55 466.641 1550.8 461.419Z" fill="url(#paint45_linear_39_349)"/>
<g opacity="0.5">
<path d="M1582.77 438.861L1428.04 314.399C1414.13 305.02 1397.09 303.911 1382.78 311.481L1156.34 431.248L1138.44 411.915L1364.4 292.671C1391.44 278.399 1423.87 281.785 1448.98 301.399L1584.33 407.113C1591.05 412.376 1592.81 422.619 1588.24 430.01L1582.77 438.861Z" fill="#E5E5E5"/>
</g>
<path d="M1398.91 359.706C1396.11 361.193 1392.67 359.85 1391.23 356.706L1361.72 292.438C1360.26 289.26 1361.36 285.478 1364.18 283.992L1364.96 283.578C1367.78 282.092 1371.25 283.464 1372.7 286.641L1402.14 350.909C1403.58 354.053 1402.48 357.806 1399.69 359.292L1398.91 359.706Z" fill="url(#paint46_linear_39_349)"/>
<path d="M1370.82 374.63C1368.01 376.12 1364.56 374.781 1363.11 371.637L1333.42 307.367C1331.95 304.189 1333.05 300.405 1335.88 298.914L1336.67 298.499C1339.49 297.01 1342.97 298.379 1344.43 301.556L1374.05 365.826C1375.5 368.97 1374.4 372.725 1371.6 374.214L1370.82 374.63Z" fill="url(#paint47_linear_39_349)"/>
<path d="M1342.66 389.589C1339.85 391.083 1336.39 389.747 1334.92 386.602L1305.06 322.331C1303.59 319.154 1304.68 315.366 1307.52 313.873L1308.31 313.457C1311.14 311.964 1314.63 313.331 1316.1 316.508L1345.89 380.779C1347.35 383.923 1346.25 387.68 1343.44 389.173L1342.66 389.589Z" fill="url(#paint48_linear_39_349)"/>
<path d="M1311.3 406.252C1308.48 407.749 1305 406.416 1303.53 403.272L1273.47 339C1271.98 335.823 1273.08 332.032 1275.92 330.534L1276.71 330.117C1279.55 328.62 1283.05 329.984 1284.54 333.161L1314.53 397.432C1315.99 400.576 1314.9 404.338 1312.08 405.834L1311.3 406.252Z" fill="url(#paint49_linear_39_349)"/>
<path d="M1180.76 488.359C1184.47 485.18 1185.5 479.528 1183.25 474.827C1171.61 450.571 1159.93 426.221 1148.2 401.779C1145.91 397.011 1140.94 394.486 1136.25 395.733C1121.13 399.755 1105.98 403.783 1090.8 407.818C1108.89 445.162 1126.88 482.288 1144.76 519.2C1156.77 508.914 1168.77 498.633 1180.76 488.359Z" fill="url(#paint50_linear_39_349)"/>
<g opacity="0.5">
<path d="M1162.32 431.215L1112.78 453.181L1099.51 425.792L1149.12 403.693L1162.32 431.215Z" fill="#E5E5E5"/>
</g>
<path d="M1067.53 732.032L984.959 848.98C967.576 873.6 935.244 880.776 908.792 865.772L743.264 771.764C715.858 756.218 681.984 763.068 664.18 788.285L485.545 1041.3C477.218 1053.1 461.017 1055.81 448.912 1047.01L377.506 995.133C365.202 986.194 362.164 969.361 370.586 957.431L565.891 680.799L583.933 590.714C590.547 557.56 610.235 529.539 638.311 513.19L904.438 358.236C929.346 343.75 960.716 347.099 984.092 366.667L1009.5 387.935C1017.48 394.616 1027.37 397.85 1037.15 397.002L1069 394.203C1084.51 392.831 1099.6 401.834 1107.14 416.882L1144.13 490.852C1147.21 497.027 1148.73 503.694 1148.77 510.243C1148.84 521.087 1144.88 531.631 1137.24 539.234L1122.13 554.245C1104.43 571.807 1093.51 595.892 1091.41 621.976L1086.85 678.068C1085.25 697.749 1078.54 716.425 1067.53 732.032Z" fill="url(#paint51_linear_39_349)"/>
<path opacity="0.3" d="M1067.53 732.032L984.959 848.98C967.576 873.6 935.244 880.776 908.792 865.772L743.263 771.764C715.858 756.218 681.984 763.068 664.18 788.285L485.545 1041.3C477.218 1053.1 461.017 1055.81 448.912 1047.01L426.134 1030.47C414.326 1021.89 410.394 1004.92 418.515 993.418L606.857 726.65L624.936 640.38C631.342 608.482 650.814 581.894 677.828 566.091L934.117 416.236C958.133 402.201 988.181 405.564 1010.66 424.3L1035.11 444.678C1042.79 451.073 1052.51 453.931 1061.91 453.072L1092.8 450.03C1107.72 448.67 1122.27 457.279 1129.5 471.735L1148.77 510.241C1148.84 521.085 1144.88 531.63 1137.24 539.233L1122.13 554.244C1104.43 571.806 1093.52 595.891 1091.41 621.974L1086.85 678.067C1085.25 697.749 1078.54 716.425 1067.53 732.032Z" fill="url(#paint52_linear_39_349)"/>
<path d="M1768.39 729.689C1768.39 830.48 1689.66 914.355 1590 918.43C1589.03 918.466 1588.07 918.502 1587.1 918.527C1483.78 921.139 1398.29 837.393 1398.29 731.419C1398.29 633.023 1472.1 552.999 1565.46 543.475C1572.57 542.747 1579.79 542.43 1587.1 542.547C1688.12 544.156 1768.39 627.927 1768.39 729.689Z" fill="url(#paint53_linear_39_349)"/>
<path d="M1747.25 729.788C1747.25 819.681 1676.25 894.175 1587.1 896.21C1496.17 898.287 1421.11 824.476 1421.11 731.312C1421.11 638.148 1496.17 563.636 1587.1 564.863C1676.25 566.065 1747.25 639.895 1747.25 729.788Z" fill="url(#paint54_linear_39_349)"/>
<path d="M1730.4 729.867C1730.4 810.302 1666.8 876.837 1587.1 878.502C1505.97 880.197 1439.14 814.272 1439.14 731.228C1439.14 648.184 1505.97 581.634 1587.1 582.571C1666.8 583.491 1730.4 649.431 1730.4 729.867Z" fill="url(#paint55_linear_39_349)"/>
<path opacity="0.2" d="M1552.23 824.112C1549.68 852.351 1553.7 875.847 1567.25 895.448C1573.03 903.814 1580.53 911.45 1590 918.43C1589.03 918.466 1588.07 918.502 1587.1 918.527C1483.78 921.139 1398.29 837.393 1398.29 731.419C1398.29 633.023 1472.1 552.999 1565.46 543.475C1571.38 549.534 1577.1 556.633 1582.06 564.877C1596.55 588.869 1604.85 622.573 1594.18 668.774C1592.38 676.562 1590.04 684.715 1587.1 693.244C1580.51 712.339 1574.5 730.222 1569.37 746.967C1566.43 756.575 1563.78 765.802 1561.47 774.669C1556.83 792.579 1553.58 809.015 1552.23 824.112Z" fill="url(#paint56_linear_39_349)"/>
<path d="M1784.97 729.591C1784.97 830.146 1706.61 913.821 1607.41 917.88C1606.46 917.917 1605.5 917.952 1604.53 917.977C1501.71 920.576 1416.63 837.029 1416.63 731.313C1416.63 633.155 1490.08 553.324 1583 543.819C1590.07 543.092 1597.25 542.776 1604.53 542.892C1705.08 544.495 1784.97 628.067 1784.97 729.591Z" fill="url(#paint57_linear_39_349)"/>
<path d="M1763.93 729.69C1763.93 819.372 1693.26 893.688 1604.53 895.714C1514.03 897.78 1439.34 824.144 1439.34 731.207C1439.34 638.269 1514.03 563.935 1604.53 565.156C1693.26 566.353 1763.93 640.008 1763.93 729.69Z" fill="url(#paint58_linear_39_349)"/>
<path d="M1747.15 729.768C1747.15 810.015 1683.86 876.39 1604.53 878.048C1523.79 879.735 1457.28 813.966 1457.28 731.123C1457.28 648.279 1523.79 581.89 1604.53 582.822C1683.86 583.738 1747.15 649.521 1747.15 729.768Z" fill="url(#paint59_linear_39_349)"/>
<path opacity="0.2" d="M1574.13 823.786C1571.59 851.958 1575.59 875.398 1589.08 894.952C1594.83 903.299 1602.3 910.917 1611.72 917.881C1610.76 917.917 1609.8 917.953 1608.83 917.977C1506.01 920.577 1420.94 837.03 1420.94 731.313C1420.94 633.156 1494.38 553.324 1587.3 543.82C1593.19 549.864 1598.88 556.945 1603.82 565.171C1618.24 589.104 1626.5 622.729 1615.88 668.819C1614.09 676.589 1611.76 684.722 1608.83 693.231C1602.28 712.281 1596.3 730.121 1591.19 746.826C1588.27 756.412 1585.63 765.616 1583.33 774.461C1578.71 792.328 1575.48 808.725 1574.13 823.786Z" fill="#E5E5E5"/>
<path d="M1687.38 644.126C1670.22 668.815 1626.67 669.501 1565.3 680.474C1518.18 688.902 1510.36 741.791 1509.27 765.893C1511.03 765.853 1512.85 765.759 1514.72 765.591C1521.87 764.887 1529.63 762.732 1537.07 758.711C1540.82 756.769 1544.45 754.205 1548.06 751.473C1549.82 749.997 1551.59 748.51 1553.37 747.018L1558.43 741.965C1562.24 738.279 1565.93 734.333 1569.77 730.735C1573.43 727.046 1577.65 723.561 1581.66 720.25C1585.6 716.872 1589.7 713.933 1593.68 711.294C1597.54 708.564 1601.58 706.34 1605.32 704.409C1608.9 702.335 1612.88 701.178 1616.01 699.956C1619.43 699.024 1622.33 698.268 1624.91 698.223C1627.43 698.003 1629.36 698.212 1630.68 698.55C1631.94 698.836 1632.61 698.992 1632.61 698.992C1632.61 698.992 1631.98 699.276 1630.79 699.807C1630.21 700.077 1629.5 700.296 1628.72 700.755C1627.96 701.28 1627.09 701.824 1626.14 702.398C1624.24 703.469 1622.18 705.57 1619.8 707.373C1617.53 709.73 1614.93 711.847 1612.31 714.855C1609.61 717.681 1606.71 720.623 1603.76 724.079C1600.72 727.363 1597.56 730.83 1594.38 734.537C1591.09 738.194 1587.69 741.974 1584.24 745.814C1580.71 749.776 1577.1 753.698 1573.3 757.54L1566.84 763.653C1564.53 765.55 1562.04 767.224 1559.67 768.974C1554.72 772.226 1549.46 774.972 1544.01 776.729C1538.63 778.61 1533.12 779.518 1527.95 779.703C1522.77 779.902 1517.91 779.224 1513.63 778.2C1512.04 777.788 1510.6 777.273 1509.17 776.775C1509.2 777.472 1509.22 777.863 1509.22 777.863L1519.78 790.208C1638.55 877.305 1706.52 730.539 1687.38 644.126Z" fill="#E5E5E5"/>
</g>
<defs>
<linearGradient id="paint0_linear_39_349" x1="669.833" y1="1361.56" x2="1063.97" y2="1361.56" gradientUnits="userSpaceOnUse">
<stop stop-color="#FF9085"/>
<stop offset="1" stop-color="#FB6FBB"/>
</linearGradient>
<linearGradient id="paint1_linear_39_349" x1="795.385" y1="1361.13" x2="694.671" y2="1621.24" gradientUnits="userSpaceOnUse">
<stop offset="0.0036" stop-color="#E38DDD"/>
<stop offset="1" stop-color="#9571F6"/>
</linearGradient>
<linearGradient id="paint2_linear_39_349" x1="1609.51" y1="1733.1" x2="1642.58" y2="1701.73" gradientUnits="userSpaceOnUse">
<stop stop-color="#FCB148"/>
<stop offset="0.0521" stop-color="#FDBA46"/>
<stop offset="0.1424" stop-color="#FFC244"/>
<stop offset="0.3183" stop-color="#FFC444"/>
<stop offset="0.4849" stop-color="#FDB946"/>
<stop offset="0.7754" stop-color="#F99C4D"/>
<stop offset="0.8658" stop-color="#F8924F"/>
<stop offset="1" stop-color="#F8924F"/>
</linearGradient>
<linearGradient id="paint3_linear_39_349" x1="1040.49" y1="1954.07" x2="1186.17" y2="1815.87" gradientUnits="userSpaceOnUse">
<stop stop-color="#FCB148"/>
<stop offset="0.0521" stop-color="#FDBA46"/>
<stop offset="0.1424" stop-color="#FFC244"/>
<stop offset="0.3183" stop-color="#FFC444"/>
<stop offset="0.4849" stop-color="#FDB946"/>
<stop offset="0.7754" stop-color="#F99C4D"/>
<stop offset="0.8658" stop-color="#F8924F"/>
<stop offset="1" stop-color="#F8924F"/>
</linearGradient>
<linearGradient id="paint4_linear_39_349" x1="1061.34" y1="1824.36" x2="1199.56" y2="1824.36" gradientUnits="userSpaceOnUse">
<stop stop-color="#444B8C"/>
<stop offset="0.9964" stop-color="#3E4177"/>
</linearGradient>
<linearGradient id="paint5_linear_39_349" x1="1278.31" y1="1648.17" x2="1128.77" y2="1930.25" gradientUnits="userSpaceOnUse">
<stop stop-color="#EBEFF2"/>
<stop offset="0.9946" stop-color="#B7C0CE"/>
</linearGradient>
<linearGradient id="paint6_linear_39_349" x1="1514.11" y1="1750.55" x2="1627.24" y2="1750.55" gradientUnits="userSpaceOnUse">
<stop stop-color="#444B8C"/>
<stop offset="0.9964" stop-color="#3E4177"/>
</linearGradient>
<linearGradient id="paint7_linear_39_349" x1="1695.14" y1="1599.51" x2="1566.95" y2="1841.31" gradientUnits="userSpaceOnUse">
<stop stop-color="#EBEFF2"/>
<stop offset="0.9946" stop-color="#B7C0CE"/>
</linearGradient>
<linearGradient id="paint8_linear_39_349" x1="452.923" y1="1806.14" x2="621.304" y2="1806.14" gradientUnits="userSpaceOnUse">
<stop stop-color="#444B8C"/>
<stop offset="0.9964" stop-color="#3E4177"/>
</linearGradient>
<linearGradient id="paint9_linear_39_349" x1="709.286" y1="1610.97" x2="539.485" y2="1931.26" gradientUnits="userSpaceOnUse">
<stop stop-color="#444B8C"/>
<stop offset="0.9964" stop-color="#3E4177"/>
</linearGradient>
<linearGradient id="paint10_linear_39_349" x1="561.852" y1="1809.27" x2="648.815" y2="1809.27" gradientUnits="userSpaceOnUse">
<stop stop-color="#444B8C"/>
<stop offset="0.9964" stop-color="#3E4177"/>
</linearGradient>
<linearGradient id="paint11_linear_39_349" x1="654.443" y1="2183.74" x2="-614.357" y2="3722.73" gradientUnits="userSpaceOnUse">
<stop stop-color="#FCB148"/>
<stop offset="0.0521" stop-color="#FDBA46"/>
<stop offset="0.1424" stop-color="#FFC244"/>
<stop offset="0.3183" stop-color="#FFC444"/>
<stop offset="0.4849" stop-color="#FDB946"/>
<stop offset="0.7754" stop-color="#F99C4D"/>
<stop offset="0.8658" stop-color="#F8924F"/>
<stop offset="1" stop-color="#F8924F"/>
</linearGradient>
<linearGradient id="paint12_linear_39_349" x1="746.963" y1="1675.35" x2="663.866" y2="2122.43" gradientUnits="userSpaceOnUse">
<stop stop-color="#FCB148"/>
<stop offset="0.0521" stop-color="#FDBA46"/>
<stop offset="0.1424" stop-color="#FFC244"/>
<stop offset="0.3183" stop-color="#FFC444"/>
<stop offset="0.4849" stop-color="#FDB946"/>
<stop offset="0.7754" stop-color="#F99C4D"/>
<stop offset="0.8658" stop-color="#F8924F"/>
<stop offset="1" stop-color="#F8924F"/>
</linearGradient>
<linearGradient id="paint13_linear_39_349" x1="520.901" y1="1695.14" x2="798.523" y2="1695.14" gradientUnits="userSpaceOnUse">
<stop stop-color="#FCB148"/>
<stop offset="0.0521" stop-color="#FDBA46"/>
<stop offset="0.1424" stop-color="#FFC244"/>
<stop offset="0.3183" stop-color="#FFC444"/>
<stop offset="0.4849" stop-color="#FDB946"/>
<stop offset="0.7754" stop-color="#F99C4D"/>
<stop offset="0.8658" stop-color="#F8924F"/>
<stop offset="1" stop-color="#F8924F"/>
</linearGradient>
<linearGradient id="paint14_linear_39_349" x1="540.976" y1="1729.67" x2="771.761" y2="1729.67" gradientUnits="userSpaceOnUse">
<stop stop-color="#FCB148"/>
<stop offset="0.0521" stop-color="#FDBA46"/>
<stop offset="0.1424" stop-color="#FFC244"/>
<stop offset="0.3183" stop-color="#FFC444"/>
<stop offset="0.4849" stop-color="#FDB946"/>
<stop offset="0.7754" stop-color="#F99C4D"/>
<stop offset="0.8658" stop-color="#F8924F"/>
<stop offset="1" stop-color="#F8924F"/>
</linearGradient>
<linearGradient id="paint15_linear_39_349" x1="1402.91" y1="1704.57" x2="1524.94" y2="1588.82" gradientUnits="userSpaceOnUse">
<stop stop-color="#FCB148"/>
<stop offset="0.0521" stop-color="#FDBA46"/>
<stop offset="0.1424" stop-color="#FFC244"/>
<stop offset="0.3183" stop-color="#FFC444"/>
<stop offset="0.4849" stop-color="#FDB946"/>
<stop offset="0.7754" stop-color="#F99C4D"/>
<stop offset="0.8658" stop-color="#F8924F"/>
<stop offset="1" stop-color="#F8924F"/>
</linearGradient>
<linearGradient id="paint16_linear_39_349" x1="1318.74" y1="1914.13" x2="1696.86" y2="1555.45" gradientUnits="userSpaceOnUse">
<stop stop-color="#FCB148"/>
<stop offset="0.0521" stop-color="#FDBA46"/>
<stop offset="0.1424" stop-color="#FFC244"/>
<stop offset="0.3183" stop-color="#FFC444"/>
<stop offset="0.4849" stop-color="#FDB946"/>
<stop offset="0.7754" stop-color="#F99C4D"/>
<stop offset="0.8658" stop-color="#F8924F"/>
<stop offset="1" stop-color="#F8924F"/>
</linearGradient>
<linearGradient id="paint17_linear_39_349" x1="660.092" y1="1443.97" x2="1272.04" y2="1443.97" gradientUnits="userSpaceOnUse">
<stop stop-color="#444B8C"/>
<stop offset="0.9964" stop-color="#3E4177"/>
</linearGradient>
<linearGradient id="paint18_linear_39_349" x1="1382.07" y1="1438.6" x2="1584.71" y2="1438.6" gradientUnits="userSpaceOnUse">
<stop stop-color="#444B8C"/>
<stop offset="0.9964" stop-color="#3E4177"/>
</linearGradient>
<linearGradient id="paint19_linear_39_349" x1="1237.62" y1="1457.02" x2="1438.87" y2="1457.02" gradientUnits="userSpaceOnUse">
<stop stop-color="#444B8C"/>
<stop offset="0.9964" stop-color="#3E4177"/>
</linearGradient>
<linearGradient id="paint20_linear_39_349" x1="793.772" y1="1657.2" x2="1096.09" y2="1370.43" gradientUnits="userSpaceOnUse">
<stop stop-color="#444B8C"/>
<stop offset="0.9964" stop-color="#3E4177"/>
</linearGradient>
<linearGradient id="paint21_linear_39_349" x1="1242.18" y1="1550.19" x2="1252.15" y2="1540.73" gradientUnits="userSpaceOnUse">
<stop stop-color="#444B8C"/>
<stop offset="0.9964" stop-color="#3E4177"/>
</linearGradient>
<linearGradient id="paint22_linear_39_349" x1="1342.28" y1="1559.12" x2="1431.74" y2="1474.26" gradientUnits="userSpaceOnUse">
<stop stop-color="#444B8C"/>
<stop offset="0.9964" stop-color="#3E4177"/>
</linearGradient>
<linearGradient id="paint23_linear_39_349" x1="1451.86" y1="1501.67" x2="1541.15" y2="1416.97" gradientUnits="userSpaceOnUse">
<stop stop-color="#444B8C"/>
<stop offset="0.9964" stop-color="#3E4177"/>
</linearGradient>
<linearGradient id="paint24_linear_39_349" x1="1282.21" y1="1542.49" x2="1407.12" y2="1424" gradientUnits="userSpaceOnUse">
<stop stop-color="#FCB148"/>
<stop offset="0.0521" stop-color="#FDBA46"/>
<stop offset="0.1424" stop-color="#FFC244"/>
<stop offset="0.3183" stop-color="#FFC444"/>
<stop offset="0.4849" stop-color="#FDB946"/>
<stop offset="0.7754" stop-color="#F99C4D"/>
<stop offset="0.8658" stop-color="#F8924F"/>
<stop offset="1" stop-color="#F8924F"/>
</linearGradient>
<linearGradient id="paint25_linear_39_349" x1="1216.6" y1="1601.9" x2="1341.51" y2="1483.42" gradientUnits="userSpaceOnUse">
<stop stop-color="#FCB148"/>
<stop offset="0.0521" stop-color="#FDBA46"/>
<stop offset="0.1424" stop-color="#FFC244"/>
<stop offset="0.3183" stop-color="#FFC444"/>
<stop offset="0.4849" stop-color="#FDB946"/>
<stop offset="0.7754" stop-color="#F99C4D"/>
<stop offset="0.8658" stop-color="#F8924F"/>
<stop offset="1" stop-color="#F8924F"/>
</linearGradient>
<linearGradient id="paint26_linear_39_349" x1="1452.55" y1="1006.14" x2="1475.99" y2="1040.65" gradientUnits="userSpaceOnUse">
<stop stop-color="#AB316D"/>
<stop offset="1" stop-color="#792D3D"/>
</linearGradient>
<linearGradient id="paint27_linear_39_349" x1="1489.38" y1="1134.02" x2="1680.23" y2="1554.82" gradientUnits="userSpaceOnUse">
<stop stop-color="#FF9085"/>
<stop offset="1" stop-color="#FB6FBB"/>
</linearGradient>
<linearGradient id="paint28_linear_39_349" x1="1738.94" y1="1885.56" x2="1738.94" y2="1846.92" gradientUnits="userSpaceOnUse">
<stop stop-color="#AB316D"/>
<stop offset="1" stop-color="#792D3D"/>
</linearGradient>
<linearGradient id="paint29_linear_39_349" x1="1565.65" y1="1902.63" x2="1565.65" y2="1858.26" gradientUnits="userSpaceOnUse">
<stop stop-color="#AB316D"/>
<stop offset="1" stop-color="#792D3D"/>
</linearGradient>
<linearGradient id="paint30_linear_39_349" x1="1563.25" y1="1922.98" x2="1735.07" y2="1255.54" gradientUnits="userSpaceOnUse">
<stop stop-color="#444B8C"/>
<stop offset="0.9964" stop-color="#26264F"/>
</linearGradient>
<linearGradient id="paint31_linear_39_349" x1="1562.5" y1="1133.6" x2="1723.53" y2="1488.65" gradientUnits="userSpaceOnUse">
<stop stop-color="#FF9085"/>
<stop offset="1" stop-color="#FB6FBB"/>
</linearGradient>
<linearGradient id="paint32_linear_39_349" x1="1667.95" y1="1107.85" x2="1626.69" y2="1172.07" gradientUnits="userSpaceOnUse">
<stop stop-color="#AB316D"/>
<stop offset="1" stop-color="#792D3D"/>
</linearGradient>
<linearGradient id="paint33_linear_39_349" x1="1653.96" y1="1098.97" x2="1630.07" y2="1169.42" gradientUnits="userSpaceOnUse">
<stop stop-color="#AB316D"/>
<stop offset="1" stop-color="#792D3D"/>
</linearGradient>
<linearGradient id="paint34_linear_39_349" x1="1693.72" y1="1319.86" x2="1660.7" y2="1446.18" gradientUnits="userSpaceOnUse">
<stop stop-color="#AB316D"/>
<stop offset="1" stop-color="#792D3D"/>
</linearGradient>
<linearGradient id="paint35_linear_39_349" x1="1670.16" y1="1084.77" x2="1831.19" y2="1439.81" gradientUnits="userSpaceOnUse">
<stop stop-color="#FF9085"/>
<stop offset="1" stop-color="#FB6FBB"/>
</linearGradient>
<linearGradient id="paint36_linear_39_349" x1="1397.35" y1="1308.35" x2="1697.33" y2="1308.35" gradientUnits="userSpaceOnUse">
<stop stop-color="#FF9085"/>
<stop offset="1" stop-color="#FB6FBB"/>
</linearGradient>
<linearGradient id="paint37_linear_39_349" x1="436.293" y1="1179.45" x2="421.756" y2="1539.6" gradientUnits="userSpaceOnUse">
<stop stop-color="#444B8C"/>
<stop offset="0.9964" stop-color="#26264F"/>
</linearGradient>
<linearGradient id="paint38_linear_39_349" x1="1032.71" y1="724.582" x2="575.82" y2="996.773" gradientUnits="userSpaceOnUse">
<stop stop-color="#444B8C"/>
<stop offset="0.9964" stop-color="#26264F"/>
</linearGradient>
<linearGradient id="paint39_linear_39_349" x1="570.697" y1="866.668" x2="849.017" y2="1063.17" gradientUnits="userSpaceOnUse">
<stop stop-color="#444B8C"/>
<stop offset="0.9964" stop-color="#3E4177"/>
</linearGradient>
<linearGradient id="paint40_linear_39_349" x1="574.847" y1="861.357" x2="840.665" y2="1049.03" gradientUnits="userSpaceOnUse">
<stop stop-color="#444B8C"/>
<stop offset="0.9964" stop-color="#3E4177"/>
</linearGradient>
<linearGradient id="paint41_linear_39_349" x1="296.376" y1="1092.84" x2="377.949" y2="1150.43" gradientUnits="userSpaceOnUse">
<stop stop-color="#444B8C"/>
<stop offset="0.9964" stop-color="#3E4177"/>
</linearGradient>
<linearGradient id="paint42_linear_39_349" x1="318.195" y1="1109.54" x2="358.983" y2="1138.34" gradientUnits="userSpaceOnUse">
<stop stop-color="#444B8C"/>
<stop offset="0.9964" stop-color="#3E4177"/>
</linearGradient>
<linearGradient id="paint43_linear_39_349" x1="353.936" y1="1094.34" x2="245.215" y2="1207.04" gradientUnits="userSpaceOnUse">
<stop stop-color="#444B8C"/>
<stop offset="0.9964" stop-color="#3E4177"/>
</linearGradient>
<linearGradient id="paint44_linear_39_349" x1="356.479" y1="1091.06" x2="257.731" y2="1193.43" gradientUnits="userSpaceOnUse">
<stop stop-color="#444B8C"/>
<stop offset="0.9964" stop-color="#3E4177"/>
</linearGradient>
<linearGradient id="paint45_linear_39_349" x1="1298.14" y1="322.126" x2="1421.31" y2="543.242" gradientUnits="userSpaceOnUse">
<stop stop-color="#EBEFF2"/>
<stop offset="0.9946" stop-color="#B7C0CE"/>
</linearGradient>
<linearGradient id="paint46_linear_39_349" x1="1362.9" y1="284.703" x2="1403.32" y2="357.268" gradientUnits="userSpaceOnUse">
<stop stop-color="#EBEFF2"/>
<stop offset="0.9946" stop-color="#B7C0CE"/>
</linearGradient>
<linearGradient id="paint47_linear_39_349" x1="1334.68" y1="299.58" x2="1375.15" y2="372.235" gradientUnits="userSpaceOnUse">
<stop stop-color="#EBEFF2"/>
<stop offset="0.9946" stop-color="#B7C0CE"/>
</linearGradient>
<linearGradient id="paint48_linear_39_349" x1="1306.4" y1="314.493" x2="1346.92" y2="387.237" gradientUnits="userSpaceOnUse">
<stop stop-color="#EBEFF2"/>
<stop offset="0.9946" stop-color="#B7C0CE"/>
</linearGradient>
<linearGradient id="paint49_linear_39_349" x1="1274.9" y1="331.105" x2="1315.47" y2="403.947" gradientUnits="userSpaceOnUse">
<stop stop-color="#EBEFF2"/>
<stop offset="0.9946" stop-color="#B7C0CE"/>
</linearGradient>
<linearGradient id="paint50_linear_39_349" x1="1112.96" y1="395.476" x2="1173.09" y2="503.421" gradientUnits="userSpaceOnUse">
<stop stop-color="#EBEFF2"/>
<stop offset="0.9946" stop-color="#B7C0CE"/>
</linearGradient>
<linearGradient id="paint51_linear_39_349" x1="579.495" y1="579.045" x2="977.261" y2="859.882" gradientUnits="userSpaceOnUse">
<stop stop-color="#AA80F9"/>
<stop offset="0.9964" stop-color="#6165D7"/>
</linearGradient>
<linearGradient id="paint52_linear_39_349" x1="621.199" y1="628.999" x2="967.597" y2="873.569" gradientUnits="userSpaceOnUse">
<stop stop-color="#AA80F9"/>
<stop offset="0.9964" stop-color="#6165D7"/>
</linearGradient>
<linearGradient id="paint53_linear_39_349" x1="1578.28" y1="838.081" x2="1597.67" y2="456.874" gradientUnits="userSpaceOnUse">
<stop offset="0.0036" stop-color="#26264F"/>
<stop offset="1" stop-color="#444B8C"/>
</linearGradient>
<linearGradient id="paint54_linear_39_349" x1="1579.12" y1="838.071" x2="1598.5" y2="456.882" gradientUnits="userSpaceOnUse">
<stop offset="0.0036" stop-color="#26264F"/>
<stop offset="1" stop-color="#444B8C"/>
</linearGradient>
<linearGradient id="paint55_linear_39_349" x1="1579.71" y1="838.065" x2="1599.09" y2="456.889" gradientUnits="userSpaceOnUse">
<stop offset="0.0036" stop-color="#26264F"/>
<stop offset="1" stop-color="#444B8C"/>
</linearGradient>
<linearGradient id="paint56_linear_39_349" x1="1493.62" y1="833.683" x2="1513.03" y2="452.036" gradientUnits="userSpaceOnUse">
<stop offset="0.0036" stop-color="#26264F"/>
<stop offset="1" stop-color="#444B8C"/>
</linearGradient>
<linearGradient id="paint57_linear_39_349" x1="1804.48" y1="-186.995" x2="1577.7" y2="758.502" gradientUnits="userSpaceOnUse">
<stop offset="0.0036" stop-color="#E38DDD"/>
<stop offset="1" stop-color="#9571F6"/>
</linearGradient>
<linearGradient id="paint58_linear_39_349" x1="1602.6" y1="769.131" x2="1609.85" y2="1036.54" gradientUnits="userSpaceOnUse">
<stop offset="0.0036" stop-color="#FCA311"/>
<stop offset="1" stop-color="#9571F6"/>
</linearGradient>
<linearGradient id="paint59_linear_39_349" x1="1763.62" y1="438.508" x2="1399.8" y2="1047.5" gradientUnits="userSpaceOnUse">
<stop offset="0.0036" stop-color="#E38DDD"/>
<stop offset="1" stop-color="#9571F6"/>
</linearGradient>
<clipPath id="clip0_39_349">
<rect width="2081" height="2138" fill="white"/>
</clipPath>
</defs>
</svg>
